REM DIRINDEX 1\2\4,1\2\5,1\3\6,1\3\7,1\3\8
REM DIRNAME cjc092,folder01,folder02,folder03,folder04,folder05,folder06,folder07
TITLE ""
FILE "LEVEL6-014-midashigo.mp3" MP3
  TRACK 01 AUDIO
    TITLE "0:"
    INDEX 01 00:00:00
  TRACK 02 AUDIO
    TITLE "6:cjc092_4699"
    INDEX 01 00:00:09
  TRACK 03 AUDIO
    TITLE "0:"
    INDEX 01 00:03:64
  TRACK 04 AUDIO
    TITLE "7:cjc092_4700"
    INDEX 01 00:04:38
  TRACK 05 AUDIO
    TITLE "8:cjc092_4701"
    INDEX 01 00:06:06
  TRACK 06 AUDIO
    TITLE "0:"
    INDEX 01 00:07:72
  TRACK 07 AUDIO
    TITLE "7:cjc092_4702"
    INDEX 01 00:08:30
  TRACK 08 AUDIO
    TITLE "8:cjc092_4703"
    INDEX 01 00:09:67
  TRACK 09 AUDIO
    TITLE "0:"
    INDEX 01 00:11:25
  TRACK 10 AUDIO
    TITLE "7:cjc092_4704"
    INDEX 01 00:11:62
  TRACK 11 AUDIO
    TITLE "8:cjc092_4705"
    INDEX 01 00:13:26
  TRACK 12 AUDIO
    TITLE "0:"
    INDEX 01 00:15:58
  TRACK 13 AUDIO
    TITLE "7:cjc092_4706"
    INDEX 01 00:16:10
  TRACK 14 AUDIO
    TITLE "8:cjc092_4707"
    INDEX 01 00:17:49
  TRACK 15 AUDIO
    TITLE "0:"
    INDEX 01 00:20:26
  TRACK 16 AUDIO
    TITLE "7:cjc092_4708"
    INDEX 01 00:20:51
  TRACK 17 AUDIO
    TITLE "8:cjc092_4709"
    INDEX 01 00:22:03
  TRACK 18 AUDIO
    TITLE "0:"
    INDEX 01 00:24:67
  TRACK 19 AUDIO
    TITLE "7:cjc092_4710"
    INDEX 01 00:25:25
  TRACK 20 AUDIO
    TITLE "8:cjc092_4711"
    INDEX 01 00:26:56
  TRACK 21 AUDIO
    TITLE "0:"
    INDEX 01 00:30:59
  TRACK 22 AUDIO
    TITLE "7:cjc092_4712"
    INDEX 01 00:31:16
  TRACK 23 AUDIO
    TITLE "8:cjc092_4713"
    INDEX 01 00:32:48
  TRACK 24 AUDIO
    TITLE "0:"
    INDEX 01 00:35:63
  TRACK 25 AUDIO
    TITLE "7:cjc092_4714"
    INDEX 01 00:36:15
  TRACK 26 AUDIO
    TITLE "8:cjc092_4715"
    INDEX 01 00:37:56
  TRACK 27 AUDIO
    TITLE "0:"
    INDEX 01 00:40:28
  TRACK 28 AUDIO
    TITLE "7:cjc092_4716"
    INDEX 01 00:40:66
  TRACK 29 AUDIO
    TITLE "8:cjc092_4717"
    INDEX 01 00:42:25
  TRACK 30 AUDIO
    TITLE "0:"
    INDEX 01 00:45:16
  TRACK 31 AUDIO
    TITLE "7:cjc092_4718"
    INDEX 01 00:45:53
  TRACK 32 AUDIO
    TITLE "8:cjc092_4719"
    INDEX 01 00:47:09
  TRACK 33 AUDIO
    TITLE "0:"
    INDEX 01 00:48:65
  TRACK 34 AUDIO
    TITLE "7:cjc092_4720"
    INDEX 01 00:49:23
  TRACK 35 AUDIO
    TITLE "8:cjc092_4721"
    INDEX 01 00:50:58
  TRACK 36 AUDIO
    TITLE "0:"
    INDEX 01 00:52:26
  TRACK 37 AUDIO
    TITLE "7:cjc092_4722"
    INDEX 01 00:52:63
  TRACK 38 AUDIO
    TITLE "8:cjc092_4723"
    INDEX 01 00:54:27
  TRACK 39 AUDIO
    TITLE "0:"
    INDEX 01 00:56:27
  TRACK 40 AUDIO
    TITLE "7:cjc092_4724"
    INDEX 01 00:56:61
  TRACK 41 AUDIO
    TITLE "8:cjc092_4725"
    INDEX 01 00:58:18
  TRACK 42 AUDIO
    TITLE "0:"
    INDEX 01 01:01:07
  TRACK 43 AUDIO
    TITLE "7:cjc092_4726"
    INDEX 01 01:01:44
  TRACK 44 AUDIO
    TITLE "8:cjc092_4727"
    INDEX 01 01:03:06
  TRACK 45 AUDIO
    TITLE "0:"
    INDEX 01 01:06:34
  TRACK 46 AUDIO
    TITLE "7:cjc092_4728"
    INDEX 01 01:06:69
  TRACK 47 AUDIO
    TITLE "8:cjc092_4729"
    INDEX 01 01:08:31
  TRACK 48 AUDIO
    TITLE "0:"
    INDEX 01 01:11:25
  TRACK 49 AUDIO
    TITLE "7:cjc092_4730"
    INDEX 01 01:11:64
  TRACK 50 AUDIO
    TITLE "8:cjc092_4731"
    INDEX 01 01:13:12
  TRACK 51 AUDIO
    TITLE "0:"
    INDEX 01 01:18:41
  TRACK 52 AUDIO
    TITLE "7:cjc092_4732"
    INDEX 01 01:19:01
  TRACK 53 AUDIO
    TITLE "8:cjc092_4733"
    INDEX 01 01:20:22
  TRACK 54 AUDIO
    TITLE "0:"
    INDEX 01 01:22:19
  TRACK 55 AUDIO
    TITLE "7:cjc092_4734"
    INDEX 01 01:22:54
  TRACK 56 AUDIO
    TITLE "8:cjc092_4735"
    INDEX 01 01:24:06
  TRACK 57 AUDIO
    TITLE "0:"
    INDEX 01 01:27:04
  TRACK 58 AUDIO
    TITLE "7:cjc092_4736"
    INDEX 01 01:27:42
  TRACK 59 AUDIO
    TITLE "8:cjc092_4737"
    INDEX 01 01:28:69
  TRACK 60 AUDIO
    TITLE "0:"
    INDEX 01 01:31:34
  TRACK 61 AUDIO
    TITLE "7:cjc092_4738"
    INDEX 01 01:31:71
  TRACK 62 AUDIO
    TITLE "8:cjc092_4739"
    INDEX 01 01:33:29
  TRACK 63 AUDIO
    TITLE "0:"
    INDEX 01 01:35:33
  TRACK 64 AUDIO
    TITLE "7:cjc092_4740"
    INDEX 01 01:35:69
  TRACK 65 AUDIO
    TITLE "8:cjc092_4741"
    INDEX 01 01:37:26
  TRACK 66 AUDIO
    TITLE "0:"
    INDEX 01 01:40:62
  TRACK 67 AUDIO
    TITLE "7:cjc092_4742"
    INDEX 01 01:41:20
  TRACK 68 AUDIO
    TITLE "8:cjc092_4743"
    INDEX 01 01:42:67
  TRACK 69 AUDIO
    TITLE "0:"
    INDEX 01 01:44:24
